<svg 
  xmlns="http://www.w3.org/2000/svg" 
  viewBox="0 0 100 100" 
  fill="none"
>
  <defs>
    <linearGradient id="globeGrad" x1="0%" y1="0%" x2="100%" y2="100%">
      <stop offset="0%" stopColor="#1E3A8A" stopOpacity="0.8" />
      <stop offset="100%" stopColor="#0F172A" stopOpacity="0.6" />
    </linearGradient>
    <linearGradient id="goldGrad" x1="0%" y1="0%" x2="100%" y2="0%">
      <stop offset="0%" stopColor="#D4AF37" />
      <stop offset="100%" stopColor="#FDE047" />
    </linearGradient>
    <linearGradient id="meshGrad" x1="0%" y1="0%" x2="100%" y2="100%">
      <stop offset="0%" stopColor="#1E3A8A" />
      <stop offset="100%" stopColor="#2563EB" />
    </linearGradient>
  </defs>

  {/* Background circle for PWA feel */}
  <rect width="100" height="100" rx="20" fill="#0F172A" />

  <g transform="translate(10, 10)">
    {/* Globe / Orbit lines */}
    <ellipse cx="40" cy="40" rx="35" ry="35" fill="none" stroke="url(#globeGrad)" strokeWidth="1.5" opacity="0.4"/>
    <ellipse cx="40" cy="40" rx="15" ry="35" fill="none" stroke="url(#globeGrad)" strokeWidth="1" opacity="0.5"/>
    <ellipse cx="40" cy="40" rx="35" ry="15" fill="none" stroke="url(#globeGrad)" strokeWidth="1" opacity="0.5"/>
    
    {/* P Network Mesh */}
    <path 
      d="M 25,65 L 25,20 L 45,20 C 55,20 60,25 60,35 C 60,45 55,50 45,50 L 25,50" 
      fill="none" 
      stroke="url(#meshGrad)" 
      strokeWidth="4" 
      strokeLinecap="round" 
      strokeLinejoin="round"
    />
    
    {/* Connection Nodes */}
    <circle cx="25" cy="20" r="4.5" fill="url(#goldGrad)" />
    <circle cx="45" cy="20" r="4" fill="url(#goldGrad)" />
    <circle cx="58" cy="35" r="4.5" fill="url(#goldGrad)" />
    <circle cx="45" cy="50" r="4" fill="url(#goldGrad)" />
    <circle cx="25" cy="50" r="4.5" fill="url(#goldGrad)" />
    <circle cx="25" cy="65" r="4" fill="url(#goldGrad)" />
    
    <circle cx="70" cy="20" r="2.5" fill="url(#goldGrad)" opacity="0.8" />
  </g>
</svg>
